<svg enable-background="new 0 0 1417 850" height="850" viewBox="0 0 1417 850" width="1417" xmlns="http://www.w3.org/2000/svg"><path d="m0 0h1417.323v850.395h-1417.323z" fill="#00a35e"/><g fill="#ffe843"><path d="m994.003 255.305c.107 3.457.205 6.895.205 10.371 0 157.686-127.842 285.527-285.547 285.527-157.714 0-285.546-127.842-285.546-285.527 0-3.477.088-6.914.205-10.371-7.998 26.904-12.295 55.371-12.295 84.863 0 164.385 133.252 297.637 297.636 297.637 164.385 0 297.637-133.252 297.637-297.637 0-29.492-4.297-57.959-12.295-84.863z"/><path d="m647.323 368.371 61.338-43.447 61.309 43.447-23.428-70.303 61.328-43.457h-75.791l-23.418-70.341-23.418 70.341h-75.79l61.298 43.457z"/></g></svg>